Coordinates
version=1
nRows=8
nColumns=36
inDegrees=yes

Units are S.I. units (second, meters, Newtons, ...)
If the header above contains a line with 'inDegrees', this indicates whether rotational values are in degrees (yes) or radians (no).

endheader
time	pelvis_tilt	pelvis_list	pelvis_rotation	pelvis_tx	pelvis_ty	pelvis_tz	hip_flexion_r	hip_adduction_r	hip_rotation_r	knee_angle_r	knee_angle_r_beta	ankle_angle_r	subtalar_angle_r	mtp_angle_r	hip_flexion_l	hip_adduction_l	hip_rotation_l	knee_angle_l	knee_angle_l_beta	ankle_angle_l	subtalar_angle_l	mtp_angle_l	lumbar_extension	lumbar_bending	lumbar_rotation	arm_flex_r	arm_add_r	arm_rot_r	elbow_flex_r	pro_sup_r	arm_flex_l	arm_add_l	arm_rot_l	elbow_flex_l	pro_sup_l
     15.01666670	     -0.95346866	      1.89112386	     -0.30827561	      1.08709356	      0.93542781	      0.70252179	     -0.53198894	     -1.59949459	      4.67815573	     13.18798147	      0.23017370	     15.69302127	      2.29494112	     -7.49999987	     27.83304571	     -2.09068848	     -4.79826959	     33.94676490	      0.59248282	     -0.52543289	    -13.72831570	     -7.49999987	    -19.21418245	     -2.18587082	      9.11752069	      5.57926100	    -17.79626474	      7.59963708	     36.35201427	     70.54059258	      4.13840064	     -8.33905550	      7.41116931	     24.06238737	     69.05625841
     15.03333330	     -1.13190603	      1.70595176	     -0.35357448	      1.08578392	      0.93597369	      0.70083085	     -1.86672347	     -1.45896977	      4.89471198	     12.80941208	      0.22356642	     16.96297236	      2.25211532	     -7.49999987	     28.56146672	     -2.40575675	     -4.79687310	     28.54423035	      0.49819080	      0.32127590	    -12.16197196	     -7.49999987	    -18.91658786	     -1.98062558	      9.89631282	      5.68384941	    -18.32845713	      7.91249886	     36.87325109	     70.98383949	      3.89887025	     -7.79174452	      6.74801253	     23.34448401	     69.32613472
     15.05000000	     -1.41346214	      1.41892881	     -0.42443686	      1.08506736	      0.93467788	      0.70025082	     -3.33986992	     -1.10342828	      5.35677911	     12.17465900	      0.21248788	     17.49632484	      2.27259685	     -7.49999987	     29.24440173	     -2.76888106	     -4.55539454	     23.18497442	      0.40465414	      1.54342885	    -10.37041219	     -7.49999987	    -18.51423742	     -1.65722353	     10.75030749	      5.49433924	    -18.96862111	      8.47589792	     37.89426427	     71.63856439	      3.88513454	     -7.13753258	      5.68198220	     21.68833298	     70.00017131
     15.06666670	     -1.74487800	      1.39136995	     -0.37304145	      1.08515265	      0.92896305	      0.70003689	     -5.01215198	     -0.94269126	      5.96583694	     11.40035732	      0.19897377	     17.12910867	      2.32228522	     -7.49999987	     29.93592742	     -2.75675567	     -4.08624993	     18.37903928	      0.32077475	      3.02187537	     -8.75663066	     -7.49999987	    -17.93301229	     -1.62938246	     11.05594543	      5.61049269	    -19.06315943	      8.56725011	     37.80347120	     71.78502453	      3.34006260	     -6.98407948	      4.96239780	     20.86153081	     70.26820574
     15.08333330	     -2.35593235	      1.70122855	     -0.16895661	      1.08573704	      0.91887309	      0.69962420	     -6.37200992	     -1.12755899	      6.55262590	     10.83947557	      0.18918454	     16.80094206	      2.54193573	     -7.49999987	     31.00329059	     -2.27739255	     -3.27039736	     14.67402148	      0.25610999	      4.77887319	     -7.47349224	     -7.49999987	    -17.05289405	     -2.12258647	     11.16622782	      5.46942557	    -19.00864938	      8.81538262	     38.02049402	     71.91868171	      2.67170057	     -7.11572116	      4.39160685	     20.44616083	     70.42798564
     15.10000000	     -2.99680653	      2.29252233	      0.01190504	      1.08701943	      0.90856121	      0.69987771	     -7.42217149	     -1.63567066	      7.03109086	     10.73021437	      0.18727757	     17.14583702	      3.17309381	     -7.49999987	     32.22342816	     -1.49607242	     -2.61149992	     12.53486874	      0.21877473	      6.71508080	     -6.16413182	     -7.49999987	    -16.08739338	     -3.00517735	     10.83930821	      5.59410027	    -18.67960992	      9.39334746	     38.07695836	     71.95542446	      1.96227287	     -7.50979986	      3.56538175	     19.82511636	     70.64849080
     15.11666670	     -3.64195538	      3.09202821	     -0.00070499	      1.08956266	      0.90085513	      0.70105423	     -8.19581598	     -2.36382280	      7.80884416	     11.04622805	      0.19279305	     17.88388813	      3.09331812	     -7.49999987	     33.36822833	     -0.46579716	     -2.10499110	     11.95562193	      0.20866497	      8.20148180	     -5.39542254	     -7.49999987	    -15.06827971	     -4.29679546	     10.65751343	      5.68728189	    -18.15465721	      9.91588090	     37.93884348	     71.96768509	      1.12085687	     -8.11694684	      2.98999987	     19.65721853	     70.93956841
     15.13333330	     -3.86199690	      3.75731864	     -0.07173915	      1.09284445	      0.89544609	      0.70136218	     -9.25990945	     -3.00319483	      8.26717130	     11.68902843	      0.20401203	     18.59495880	      2.91407327	     -7.49999987	     33.96653029	      0.63368986	     -1.56983242	     12.91735793	      0.22545043	      8.79732699	     -5.40594338	     -7.49999987	    -14.50318438	     -5.45343398	     10.82698067	      5.47193065	    -17.72614037	     10.05843970	     38.09491901	     71.97123923	      0.45864924	     -8.69090202	      2.88794803	     19.62985294	     70.94923359
